<?xml version="1.0" encoding="UTF-8" standalone="no"?>
<!-- Uploaded to: SVG Repo, www.svgrepo.com, Generator: SVG Repo Mixer Tools -->

<svg
   width="800px"
   height="800px"
   viewBox="0 0 256 256"
   version="1.1"
   preserveAspectRatio="xMidYMid"
   id="svg185"
   sodipodi:docname="nextjs.svg"
   inkscape:version="1.2.1 (9c6d41e, 2022-07-14)"
   xmlns:inkscape="http://www.inkscape.org/namespaces/inkscape"
   xmlns:sodipodi="http://sodipodi.sourceforge.net/DTD/sodipodi-0.dtd"
   xmlns="http://www.w3.org/2000/svg"
   xmlns:svg="http://www.w3.org/2000/svg">
  <defs
     id="defs189" />
  <sodipodi:namedview
     id="namedview187"
     pagecolor="#ffffff"
     bordercolor="#000000"
     borderopacity="0.25"
     inkscape:showpageshadow="2"
     inkscape:pageopacity="0.0"
     inkscape:pagecheckerboard="0"
     inkscape:deskcolor="#d1d1d1"
     showgrid="false"
     inkscape:zoom="0.295"
     inkscape:cx="316.94915"
     inkscape:cy="428.81356"
     inkscape:window-width="1440"
     inkscape:window-height="839"
     inkscape:window-x="0"
     inkscape:window-y="25"
     inkscape:window-maximized="0"
     inkscape:current-layer="svg185" />
  <g
     id="g183">
    <path
       d="M119.616813,0.0688905149 C119.066276,0.118932037 117.314565,0.294077364 115.738025,0.419181169 C79.3775171,3.69690087 45.3192571,23.3131775 23.7481916,53.4631946 C11.7364614,70.2271045 4.05395894,89.2428829 1.15112414,109.384595 C0.12512219,116.415429 0,118.492153 0,128.025062 C0,137.557972 0.12512219,139.634696 1.15112414,146.665529 C8.10791789,194.730411 42.3163245,235.11392 88.7116325,250.076335 C97.0197458,252.753556 105.778299,254.580072 115.738025,255.680985 C119.616813,256.106338 136.383187,256.106338 140.261975,255.680985 C157.453763,253.779407 172.017986,249.525878 186.382014,242.194795 C188.584164,241.068861 189.00958,240.768612 188.709286,240.518404 C188.509091,240.36828 179.124927,227.782837 167.86393,212.570214 L147.393939,184.922273 L121.743891,146.965779 C107.630108,126.098464 96.0187683,109.034305 95.9186706,109.034305 C95.8185728,109.009284 95.7184751,125.873277 95.6684262,146.465363 C95.5933529,182.52028 95.5683284,183.971484 95.1178886,184.82219 C94.4672532,186.048207 93.9667644,186.548623 92.915738,187.099079 C92.114956,187.499411 91.4142717,187.574474 87.6355816,187.574474 L83.3063539,187.574474 L82.1552297,186.848872 C81.4044966,186.373477 80.8539589,185.747958 80.4785924,185.022356 L79.9530792,183.896422 L80.0031281,133.729796 L80.0782014,83.5381493 L80.8539589,82.5623397 C81.25435,82.0369037 82.1051808,81.3613431 82.7057674,81.0360732 C83.7317693,80.535658 84.1321603,80.4856165 88.4613881,80.4856165 C93.5663734,80.4856165 94.4172043,80.6857826 95.7434995,82.1369867 C96.1188661,82.5373189 110.007429,103.454675 126.623656,128.650581 C143.239883,153.846488 165.962072,188.250034 177.122972,205.139048 L197.392766,235.839522 L198.418768,235.163961 C207.502639,229.259062 217.112023,220.852086 224.719453,212.09482 C240.910264,193.504394 251.345455,170.835585 254.848876,146.665529 C255.874878,139.634696 256,137.557972 256,128.025062 C256,118.492153 255.874878,116.415429 254.848876,109.384595 C247.892082,61.3197135 213.683675,20.9362052 167.288368,5.97379012 C159.105376,3.32158945 150.396872,1.49507389 140.637341,0.394160408 C138.234995,0.143952798 121.693842,-0.131275573 119.616813,0.0688905149 L119.616813,0.0688905149 Z M172.017986,77.4831252 C173.219159,78.0836234 174.195112,79.2345784 174.545455,80.435575 C174.74565,81.0861148 174.795699,94.9976579 174.74565,126.348671 L174.670577,171.336 L166.73783,159.17591 L158.780059,147.01582 L158.780059,114.313685 C158.780059,93.1711423 158.880156,81.2862808 159.030303,80.7108033 C159.430694,79.3096407 160.306549,78.2087272 161.507722,77.5581875 C162.533724,77.0327515 162.909091,76.98271 166.837928,76.98271 C170.541544,76.98271 171.19218,77.0327515 172.017986,77.4831252 Z"
       fill="#000000"
       id="path181" />
  </g>
  <path
     style="fill:#ffffff;stroke:#ffffff;stroke-width:11.8644;fill-opacity:1"
     d="M 362.6602,796.54902 C 271.32135,788.92502 176.7634,742.52353 110.57752,672.84702 -0.30847525,556.11288 -29.54208,382.00708 37.165251,235.62748 63.401058,178.05679 110.90298,119.33118 162.25633,80.980064 197.61243,54.575827 255.13691,26.461212 298.30508,14.487355 330.15186,5.6537936 336.30644,5.0847458 400,5.0847458 c 63.69356,0 69.84814,0.5690478 101.69492,9.4026092 139.92694,38.812513 247.3122,147.729005 285.52942,289.600905 8.14586,30.23954 8.94332,38.79171 8.94332,95.91174 0,57.14827 -0.79488,65.66302 -8.95986,95.97688 -17.64566,65.51265 -49.2857,124.12017 -92.29255,170.95549 -22.26366,24.2456 -70.04596,65.27102 -76.02111,65.27102 -1.48261,0 -70.07814,-102.04546 -152.43451,-226.7677 C 384.10325,380.71349 312.18631,272.4084 306.6442,264.75775 c -9.79895,-13.52708 -10.61762,-13.91029 -29.71631,-13.91029 -10.80187,0 -21.47026,1.83051 -23.70755,4.06779 -5.85814,5.85815 -5.85814,321.5995 0,327.45763 5.59596,5.59597 38.19301,5.24485 42.92961,-0.46241 2.55003,-3.07261 4.04694,-41.60647 4.65236,-119.76196 l 0.89261,-115.23173 77.9661,115.20085 C 422.54237,525.4781 486.83864,616.60146 522.54163,664.614 l 64.91451,87.29549 -26.80712,12.25387 C 502.03247,790.95769 432.30898,802.36258 362.6602,796.54902 Z M 547.45763,391.94047 c 0,-119.75059 -0.79844,-144.31536 -4.79875,-147.63531 -2.83027,-2.34892 -12.91152,-3.56207 -24.57627,-2.95743 l -19.77753,1.02515 -2.24539,16.94915 c -1.23498,9.32204 -2.37905,58.01751 -2.54237,108.21214 l -0.29698,91.26302 24.57627,38.19742 c 13.51695,21.00858 25.72034,38.2877 27.11864,38.39803 1.39831,0.11017 2.54238,-64.44315 2.54238,-143.45217 z"
     id="path560"
     transform="scale(0.32)" />
</svg>
