<?xml version="1.0" encoding="UTF-8" standalone="no"?>
<svg
   height="1024pt"
   viewBox=".5 -.2 1023 1024.1"
   width="1024pt"
   version="1.1"
   id="svg48"
   sodipodi:docname="nextjs.svg"
   inkscape:version="1.2.1 (9c6d41e, 2022-07-14)"
   xmlns:inkscape="http://www.inkscape.org/namespaces/inkscape"
   xmlns:sodipodi="http://sodipodi.sourceforge.net/DTD/sodipodi-0.dtd"
   xmlns="http://www.w3.org/2000/svg"
   xmlns:svg="http://www.w3.org/2000/svg">
  <defs
     id="defs52" />
  <sodipodi:namedview
     id="namedview50"
     pagecolor="#ffffff"
     bordercolor="#000000"
     borderopacity="0.25"
     inkscape:showpageshadow="2"
     inkscape:pageopacity="0.0"
     inkscape:pagecheckerboard="0"
     inkscape:deskcolor="#d1d1d1"
     inkscape:document-units="pt"
     showgrid="false"
     inkscape:zoom="0.17285156"
     inkscape:cx="558.28249"
     inkscape:cy="691.34463"
     inkscape:window-width="1440"
     inkscape:window-height="847"
     inkscape:window-x="0"
     inkscape:window-y="25"
     inkscape:window-maximized="0"
     inkscape:current-layer="svg48" />
  <path
     d="m478.5.6c-2.2.2-9.2.9-15.5 1.4-145.3 13.1-281.4 91.5-367.6 212-48 67-78.7 143-90.3 223.5-4.1 28.1-4.6 36.4-4.6 74.5s.5 46.4 4.6 74.5c27.8 192.1 164.5 353.5 349.9 413.3 33.2 10.7 68.2 18 108 22.4 15.5 1.7 82.5 1.7 98 0 68.7-7.6 126.9-24.6 184.3-53.9 8.8-4.5 10.5-5.7 9.3-6.7-.8-.6-38.3-50.9-83.3-111.7l-81.8-110.5-102.5-151.7c-56.4-83.4-102.8-151.6-103.2-151.6-.4-.1-.8 67.3-1 149.6-.3 144.1-.4 149.9-2.2 153.3-2.6 4.9-4.6 6.9-8.8 9.1-3.2 1.6-6 1.9-21.1 1.9h-17.3l-4.6-2.9c-3-1.9-5.2-4.4-6.7-7.3l-2.1-4.5.2-200.5.3-200.6 3.1-3.9c1.6-2.1 5-4.8 7.4-6.1 4.1-2 5.7-2.2 23-2.2 20.4 0 23.8.8 29.1 6.6 1.5 1.6 57 85.2 123.4 185.9s157.2 238.2 201.8 305.7l81 122.7 4.1-2.7c36.3-23.6 74.7-57.2 105.1-92.2 64.7-74.3 106.4-164.9 120.4-261.5 4.1-28.1 4.6-36.4 4.6-74.5s-.5-46.4-4.6-74.5c-27.8-192.1-164.5-353.5-349.9-413.3-32.7-10.6-67.5-17.9-106.5-22.3-9.6-1-75.7-2.1-84-1.3zm209.4 309.4c4.8 2.4 8.7 7 10.1 11.8.8 2.6 1 58.2.8 183.5l-.3 179.8-31.7-48.6-31.8-48.6v-130.7c0-84.5.4-132 1-134.3 1.6-5.6 5.1-10 9.9-12.6 4.1-2.1 5.6-2.3 21.3-2.3 14.8 0 17.4.2 20.7 2z"
     id="path44" />
  <path
     d="m784.3 945.1c-3.5 2.2-4.6 3.7-1.5 2 2.2-1.3 5.8-4 5.2-4.1-.3 0-2 1-3.7 2.1zm-6.9 4.5c-1.8 1.4-1.8 1.5.4.4 1.2-.6 2.2-1.3 2.2-1.5 0-.8-.5-.6-2.6 1.1zm-5 3c-1.8 1.4-1.8 1.5.4.4 1.2-.6 2.2-1.3 2.2-1.5 0-.8-.5-.6-2.6 1.1zm-5 3c-1.8 1.4-1.8 1.5.4.4 1.2-.6 2.2-1.3 2.2-1.5 0-.8-.5-.6-2.6 1.1zm-7.6 4c-3.8 2-3.6 2.8.2.9 1.7-.9 3-1.8 3-2 0-.7-.1-.6-3.2 1.1z"
     id="path46" />
  <path
     style="fill:#ffffff;stroke:#ffffff;stroke-width:20.2486"
     d="M 570.63788,1353.1509 C 365.95785,1318.8386 179.42305,1183.4658 81.883969,998.45056 -54.466511,739.81657 -11.154264,429.28285 190.81147,217.4783 485.65479,-91.728393 973.44605,-61.977658 1229.0084,280.79868 c 201.7448,270.59283 170.8045,648.49816 -72.5645,886.30422 -37.2784,36.4263 -100.4893,87.7522 -103.6171,84.135 C 1052.0607,1250.352 931.19656,1067.3898 784.23977,844.65537 637.28299,621.9209 512.80938,436.42938 507.63175,432.45198 c -11.39886,-8.7565 -55.736,-9.53017 -71.22112,-1.24278 -10.82374,5.79269 -11.19029,15.04055 -11.19029,282.32314 0,207.21294 1.73654,278.07085 6.94237,283.2767 3.81831,3.81826 18.94106,6.94236 33.60612,6.94236 48.48957,0 45.97983,11.217 47.64734,-212.9545 L 514.89266,592.30572 653.491,796.58221 c 76.22905,112.35212 183.81054,265.09199 239.07004,339.42189 55.25943,74.3301 101.7053,138.3601 103.21301,142.2891 3.18811,8.3082 -55.7067,36.0635 -116.0737,54.702 -93.16132,28.7639 -211.62707,36.4897 -309.06247,20.1557 z m 363.6898,-681.64161 c 0,-215.43396 -1.11216,-246.57465 -9.09121,-254.55368 -12.61232,-12.61236 -62.03964,-12.29491 -72.64111,0.46653 -6.25375,7.52794 -8.33947,47.27748 -9.82091,187.16788 l -1.88092,177.61008 44.31166,67.38586 c 24.37143,37.06214 45.39409,67.38579 46.71708,67.38579 1.32298,0 2.40541,-110.45813 2.40541,-245.46246 z"
     id="path410"
     transform="matrix(0.75007322,0,0,0.75007322,-0.05,-0.2)" />
</svg>
