<?xml version="1.0" encoding="UTF-8" standalone="no"?>
<!-- Uploaded to: SVG Repo, www.svgrepo.com, Generator: SVG Repo Mixer Tools -->

<svg
   fill="#000000"
   width="800px"
   height="800px"
   viewBox="0 0 24 24"
   xml:space="preserve"
   version="1.1"
   id="svg67"
   sodipodi:docname="docker.svg"
   inkscape:version="1.2.1 (9c6d41e, 2022-07-14)"
   xmlns:inkscape="http://www.inkscape.org/namespaces/inkscape"
   xmlns:sodipodi="http://sodipodi.sourceforge.net/DTD/sodipodi-0.dtd"
   xmlns="http://www.w3.org/2000/svg"
   xmlns:svg="http://www.w3.org/2000/svg"><defs
     id="defs71" /><sodipodi:namedview
     id="namedview69"
     pagecolor="#ffffff"
     bordercolor="#000000"
     borderopacity="0.25"
     inkscape:showpageshadow="2"
     inkscape:pageopacity="0.0"
     inkscape:pagecheckerboard="0"
     inkscape:deskcolor="#d1d1d1"
     showgrid="false"
     inkscape:zoom="0.295"
     inkscape:cx="338.98305"
     inkscape:cy="427.11864"
     inkscape:window-width="1427"
     inkscape:window-height="768"
     inkscape:window-x="0"
     inkscape:window-y="25"
     inkscape:window-maximized="0"
     inkscape:current-layer="svg67" /><path
     d="M21.803 10.242c-.054-.043-.561-.425-1.628-.425a5.152 5.152 0 0 0-.841.072c-.207-1.417-1.378-2.107-1.43-2.138l-.287-.165-.189.272a3.851 3.851 0 0 0-.51 1.192c-.191.809-.075 1.568.336 2.218-.496.276-1.292.344-1.453.35H2.626a.626.626 0 0 0-.625.623 9.483 9.483 0 0 0 .577 3.385c.454 1.19 1.129 2.067 2.007 2.603.984.603 2.584.947 4.396.947.819.003 1.636-.072 2.441-.221a10.235 10.235 0 0 0 3.186-1.157 8.75 8.75 0 0 0 2.174-1.78c1.044-1.182 1.666-2.497 2.128-3.667h.184c1.143 0 1.846-.457 2.233-.841.258-.244.459-.542.589-.872l.084-.24-.197-.156z"
     id="path63" /><path
     d="M3.847 11.231h1.765a.154.154 0 0 0 .154-.154V9.505a.154.154 0 0 0-.153-.155H3.847a.154.154 0 0 0-.154.154V11.078c0 .084.069.153.154.153M6.28 11.231h1.765a.154.154 0 0 0 .154-.154V9.505a.153.153 0 0 0-.153-.155H6.28a.154.154 0 0 0-.155.155v1.573c.001.084.07.153.155.153M8.75 11.231h1.765a.154.154 0 0 0 .154-.154V9.505a.154.154 0 0 0-.153-.155H8.75a.154.154 0 0 0-.154.154V11.078c0 .084.069.153.154.153M11.19 11.231h1.765a.155.155 0 0 0 .155-.154V9.505a.154.154 0 0 0-.155-.155H11.19a.154.154 0 0 0-.154.154V11.078c0 .084.069.153.154.153M6.28 8.969h1.765c.085 0 .154-.07.154-.155V7.242a.154.154 0 0 0-.154-.154H6.28a.155.155 0 0 0-.155.154v1.573c.001.084.07.154.155.154M8.75 8.969h1.765c.085 0 .154-.07.154-.155V7.242a.154.154 0 0 0-.154-.154H8.75a.154.154 0 0 0-.154.154v1.573c0 .084.069.154.154.154M11.19 8.969h1.765c.085 0 .155-.07.155-.155V7.242a.155.155 0 0 0-.155-.154H11.19a.154.154 0 0 0-.154.154v1.573c0 .084.069.154.154.154M11.19 6.706h1.765a.155.155 0 0 0 .155-.154V4.978a.155.155 0 0 0-.155-.154H11.19a.154.154 0 0 0-.154.154v1.573c0 .086.069.155.154.155M13.653 11.231h1.765a.155.155 0 0 0 .155-.154V9.505a.154.154 0 0 0-.155-.155h-1.765a.154.154 0 0 0-.154.154V11.078a.153.153 0 0 0 .154.153"
     id="path65" /><path
     style="fill:#ffffff;stroke:#ffffff;stroke-width:11.8644"
     d="M 258.3567,635.33437 C 181.09216,627.5338 138.03639,605.21481 106.43853,556.58401 84.881534,523.40664 69.491525,467.18149 69.491525,421.60354 c 0,-19.83593 1.01205,-23.62289 7.53392,-28.19098 6.638399,-4.64972 34.770555,-5.27697 236.672875,-5.27697 195.24039,0 231.70809,-0.76295 246.50521,-5.15721 l 17.3662,-5.15722 -6.50702,-14.33431 c -12.47257,-27.47579 -6.97468,-75.68226 11.23278,-98.49089 l 7.6477,-9.58032 13.50298,10.69253 c 16.17064,12.80496 30.76705,33.58394 36.10369,51.39614 l 3.89617,13.00416 27.42953,0.2579 c 25.83739,0.24292 39.34356,3.22882 54.08678,11.95732 8.67413,5.1354 4.92732,15.43854 -12.48315,34.32669 -18.06031,19.59309 -36.19295,28.54176 -62.03783,30.61634 l -20.94451,1.68122 -12.97604,29.12143 c -32.87084,73.77041 -84.76084,130.4415 -148.7242,162.42758 -56.10593,28.05681 -138.48079,41.60142 -209.43991,34.43742 z"
     id="path470"
     transform="scale(0.03)" /><path
     style="fill:#ffffff;stroke:#ffffff;stroke-width:11.8644"
     d="m 124.43918,343.22034 0.98455,-27.9661 h 32.20339 32.20339 l 0.98455,27.9661 0.98455,27.9661 h -34.17249 -34.17249 z"
     id="path472"
     transform="scale(0.03)" /><path
     style="fill:#ffffff;stroke:#ffffff;stroke-width:11.8644"
     d="m 205.08475,267.91936 v -28.93631 h 34.03539 34.0354 l -0.98455,27.9661 -0.98455,27.9661 -33.05085,0.97021 -33.05084,0.97021 z"
     id="path474"
     transform="scale(0.03)" /><path
     style="fill:#ffffff;stroke:#ffffff;stroke-width:11.8644"
     d="m 289.83051,267.79661 v -28.81356 h 32.20339 32.20339 v 28.81356 28.81356 H 322.0339 289.83051 Z"
     id="path476"
     transform="scale(0.03)" /><path
     style="fill:#ffffff;stroke:#ffffff;stroke-width:11.8644"
     d="m 371.18644,267.79661 v -28.81356 h 32.20339 32.20339 v 28.81356 28.81356 h -32.20339 -32.20339 z"
     id="path478"
     transform="scale(0.03)" /><path
     style="fill:#ffffff;stroke:#ffffff;stroke-width:11.8644"
     d="m 371.18644,191.39822 v -30.63568 l 31.35593,0.97466 31.35594,0.97466 0.97943,29.66102 0.97943,29.66102 h -32.33536 -32.33537 z"
     id="path480"
     transform="scale(0.03)" /><path
     style="fill:#ffffff;stroke:#ffffff;stroke-width:11.8644"
     d="m 452.54237,342.37288 v -28.81356 h 32.20339 32.20339 v 28.81356 28.81356 h -32.20339 -32.20339 z"
     id="path482"
     transform="scale(0.03)" /><path
     style="fill:#ffffff;stroke:#ffffff;stroke-width:11.8644"
     d="m 371.18644,342.37288 v -28.81356 h 32.20339 32.20339 v 28.81356 28.81356 h -32.20339 -32.20339 z"
     id="path484"
     transform="scale(0.03)" /><path
     style="fill:#ffffff;stroke:#ffffff;stroke-width:11.8644"
     d="m 289.83051,342.37288 v -28.81356 h 32.20339 32.20339 v 28.81356 28.81356 H 322.0339 289.83051 Z"
     id="path486"
     transform="scale(0.03)" /><path
     style="fill:#ffffff;stroke:#ffffff;stroke-width:11.8644"
     d="m 205.79511,343.22034 0.98455,-27.9661 h 32.20339 32.20339 l 0.98455,27.9661 0.98455,27.9661 h -34.17249 -34.17249 z"
     id="path488"
     transform="scale(0.03)" /></svg>
