<?xml version="1.0" encoding="UTF-8" standalone="no"?>
<!-- Uploaded to: SVG Repo, www.svgrepo.com, Generator: SVG Repo Mixer Tools -->

<svg
   width="800px"
   height="800px"
   viewBox="0 0 1024 1024"
   version="1.1"
   id="svg1143"
   sodipodi:docname="mongodb.svg"
   inkscape:version="1.2.1 (9c6d41e, 2022-07-14)"
   xmlns:inkscape="http://www.inkscape.org/namespaces/inkscape"
   xmlns:sodipodi="http://sodipodi.sourceforge.net/DTD/sodipodi-0.dtd"
   xmlns="http://www.w3.org/2000/svg"
   xmlns:svg="http://www.w3.org/2000/svg">
  <defs
     id="defs1147" />
  <sodipodi:namedview
     id="namedview1145"
     pagecolor="#ffffff"
     bordercolor="#000000"
     borderopacity="0.25"
     inkscape:showpageshadow="2"
     inkscape:pageopacity="0.0"
     inkscape:pagecheckerboard="0"
     inkscape:deskcolor="#d1d1d1"
     showgrid="false"
     inkscape:zoom="0.295"
     inkscape:cx="198.30508"
     inkscape:cy="401.69492"
     inkscape:window-width="1440"
     inkscape:window-height="847"
     inkscape:window-x="0"
     inkscape:window-y="25"
     inkscape:window-maximized="1"
     inkscape:current-layer="svg1143" />
  <circle
     cx="512"
     cy="512"
     r="512"
     style="fill:#ececec"
     id="circle1139" />
  <path
     d="M648.86 449.44c-32.34-142.73-108.77-189.66-117-207.59-9-12.65-18.12-35.15-18.12-35.15-.15-.38-.39-1.05-.67-1.7-.93 12.65-1.41 17.53-13.37 30.29-18.52 14.48-113.54 94.21-121.27 256.37-7.21 151.24 109.25 241.36 125 252.85l1.79 1.27v-.11c.1.76 5 36 8.44 73.34H526a726.68 726.68 0 0 1 13-78.53l1-.65a204.48 204.48 0 0 0 20.11-16.45l.72-.65c33.48-30.93 93.67-102.47 93.08-216.53a347.07 347.07 0 0 0-5.05-56.76zM512.35 659.12s0-212.12 7-212.08c5.46 0 12.53 273.61 12.53 273.61-9.72-1.17-19.53-45.03-19.53-61.53z"
     style="fill:#fff"
     id="path1141" />
  <path
     style="fill:#2b2d30;fill-opacity:1;stroke:#ffffff;stroke-width:11.8644"
     d="M 399.87789,612.89231 397.44862,586.44068 369.8,557.62712 c -32.4741,-33.84234 -48.80956,-59.39176 -61.79019,-96.64271 -8.45709,-24.26959 -9.41348,-31.4922 -9.19753,-69.45899 0.45716,-80.37323 24.32921,-137.94694 82.17558,-198.18793 19.79561,-20.61507 21.84987,-21.90179 26.07474,-16.33237 2.5224,3.32515 4.63471,7.15939 4.694,8.52054 0.0593,1.36115 9.08756,12.38361 20.0628,24.49436 51.35682,56.67021 75.93063,116.17879 76.35171,184.89523 0.41126,67.11627 -21.69446,119.85516 -69.8163,166.56475 -19.50056,18.92824 -19.72563,19.37017 -24.04608,47.21214 -5.71781,36.84698 -11.28382,38.46698 -14.43084,4.20017 z m 14.14577,-134.07875 c -2.68715,-99.69645 -5.20977,-133.05118 -9.72141,-128.53954 -1.77873,1.77873 -3.41516,43.82067 -3.73425,95.93764 -0.49499,80.84624 0.1723,94.40542 5.19123,105.48326 3.16758,6.99152 6.84198,12.71186 8.16535,12.71186 1.32336,0 1.36795,-38.51695 0.0991,-85.59322 z"
     id="path9316"
     transform="scale(1.28)" />
  <path
     style="fill:#ffffff;fill-opacity:1;stroke:#ffffff;stroke-width:11.8644"
     d="M 342.37288,794.54746 C 261.78209,782.9341 177.84594,740.43281 118.70657,681.29342 -75.735861,486.85102 -19.218313,159.77437 229.3877,40.762946 c 151.93149,-72.73188 332.34806,-41.61406403 451.90572,77.943624 155.57363,155.57363 155.57363,407.01323 0,562.58685 -88.15183,88.15187 -216.19549,130.93905 -338.92054,113.25404 z m 70.68671,-156.41187 c 2.6077,-4.19491 6.5717,-17.35671 8.80885,-29.24847 3.71295,-19.73627 6.27698,-24.14851 29.40895,-50.60739 47.36068,-54.17231 63.45014,-95.86051 63.05003,-163.36448 -0.45379,-76.56706 -17.3283,-115.7026 -87.69783,-203.38983 -6.73288,-8.38983 -14.95149,-18.70649 -18.26359,-22.92592 l -6.022,-7.67169 -21.41197,22.29834 c -57.71664,60.10588 -81.24164,108.53783 -87.45265,180.04256 -7.26433,83.63112 11.90746,136.95282 71.9697,200.16627 24.55553,25.84387 25.12482,26.8416 27.23729,47.73824 3.29499,32.59373 10.74417,42.45217 20.37322,26.96237 z"
     id="path9594"
     transform="scale(1.28)" />
</svg>
