<svg xmlns:inkscape="http://www.inkscape.org/namespaces/inkscape" xmlns:sodipodi="http://sodipodi.sourceforge.net/DTD/sodipodi-0.dtd" xmlns="http://www.w3.org/2000/svg" xmlns:svg="http://www.w3.org/2000/svg" fill="none" version="1.1" id="svg563" sodipodi:docname="python.svg" inkscape:version="1.2.1 (9c6d41e, 2022-07-14)" viewBox="16 16 32 31.83">
  <sodipodi:namedview id="namedview565" pagecolor="#ffffff" bordercolor="#000000" borderopacity="0.25" inkscape:showpageshadow="2" inkscape:pageopacity="0.0" inkscape:pagecheckerboard="0" inkscape:deskcolor="#d1d1d1" showgrid="false" inkscape:zoom="0.295" inkscape:cx="318.64407" inkscape:cy="400" inkscape:window-width="1309" inkscape:window-height="456" inkscape:window-x="0" inkscape:window-y="25" inkscape:window-maximized="0" inkscape:current-layer="svg563"/>
  <path d="M31.885 16c-8.124 0-7.617 3.523-7.617 3.523l.01 3.65h7.752v1.095H21.197S16 23.678 16 31.876c0 8.196 4.537 7.906 4.537 7.906h2.708v-3.804s-.146-4.537 4.465-4.537h7.688s4.32.07 4.32-4.175v-7.019S40.374 16 31.885 16zm-4.275 2.454c.771 0 1.395.624 1.395 1.395s-.624 1.395-1.395 1.395a1.393 1.393 0 0 1-1.395-1.395c0-.771.624-1.395 1.395-1.395z" fill="url(#a)" id="path547" style="fill:#f2f2f2"/>
  <path d="M32.115 47.833c8.124 0 7.617-3.523 7.617-3.523l-.01-3.65H31.97v-1.095h10.832S48 40.155 48 31.958c0-8.197-4.537-7.906-4.537-7.906h-2.708v3.803s.146 4.537-4.465 4.537h-7.688s-4.32-.07-4.32 4.175v7.019s-.656 4.247 7.833 4.247zm4.275-2.454a1.393 1.393 0 0 1-1.395-1.395c0-.77.624-1.394 1.395-1.394s1.395.623 1.395 1.394c0 .772-.624 1.395-1.395 1.395z" fill="url(#b)" id="path549" style="fill:#f2f2f2"/>
  <defs id="defs561">
    <linearGradient id="a" x1="19.075" y1="18.782" x2="34.898" y2="34.658" gradientUnits="userSpaceOnUse">
      <stop stop-color="#387EB8" id="stop551"/>
      <stop offset="1" stop-color="#366994" id="stop553"/>
    </linearGradient>
    <linearGradient id="b" x1="28.809" y1="28.882" x2="45.803" y2="45.163" gradientUnits="userSpaceOnUse">
      <stop stop-color="#FFE052" id="stop556"/>
      <stop offset="1" stop-color="#FFC331" id="stop558"/>
    </linearGradient>
  </defs>
</svg>